<?xml version="1.0" encoding="UTF-8" standalone="no"?>
<!-- Created with Inkscape (http://www.inkscape.org/) -->

<svg
   xmlns:dc="http://purl.org/dc/elements/1.1/"
   xmlns:cc="http://creativecommons.org/ns#"
   xmlns:rdf="http://www.w3.org/1999/02/22-rdf-syntax-ns#"
   xmlns:svg="http://www.w3.org/2000/svg"
   xmlns="http://www.w3.org/2000/svg"
   xmlns:sodipodi="http://sodipodi.sourceforge.net/DTD/sodipodi-0.dtd"
   xmlns:inkscape="http://www.inkscape.org/namespaces/inkscape"
   width="290"
   height="270"
   id="svg3324"
   version="1.1"
   inkscape:version="0.48.4 r9939"
   sodipodi:docname="student_face.svg">
  <defs
     id="defs3326" />
  <sodipodi:namedview
     id="base"
     pagecolor="#ffffff"
     bordercolor="#666666"
     borderopacity="1.0"
     inkscape:pageopacity="0.0"
     inkscape:pageshadow="2"
     inkscape:zoom="2.0696577"
     inkscape:cx="86.692813"
     inkscape:cy="107.67979"
     inkscape:document-units="px"
     inkscape:current-layer="layer1"
     showgrid="false"
     fit-margin-top="0"
     fit-margin-left="0"
     fit-margin-right="0"
     fit-margin-bottom="0"
     inkscape:window-width="1600"
     inkscape:window-height="876"
     inkscape:window-x="0"
     inkscape:window-y="24"
     inkscape:window-maximized="1" />
  <metadata
     id="metadata3329">
    <rdf:RDF>
      <cc:Work
         rdf:about="">
        <dc:format>image/svg+xml</dc:format>
        <dc:type
           rdf:resource="http://purl.org/dc/dcmitype/StillImage" />
        <dc:title></dc:title>
      </cc:Work>
    </rdf:RDF>
  </metadata>
  <g
     inkscape:label="Calque 1"
     inkscape:groupmode="layer"
     id="layer1"
     transform="translate(-360.97771,-224.5521)">
    <g
       id="g3275"
       transform="matrix(2.309783,0,0,2.309783,-624.74589,-293.43001)">
      <path
         inkscape:export-ydpi="102.02"
         inkscape:export-xdpi="102.02"
         inkscape:export-filename="/home/jc/Documents/web/crazybio/www/bioinfo/crazybioflow_sdk/crazybiolab/character/student.png"
         inkscape:connector-curvature="0"
         id="path3949-9"
         d="m 490.51174,307.84185 c 0.63936,0.89511 -4.6918,15.19528 4.40602,21.91478 8.24823,6.09202 37.66404,-3.11751 38.17553,-3.629 0.5115,-0.51149 -9.20682,-25.70237 -9.20682,-25.70237 l 0,-18.6694 z"
         style="fill:#e9afc4;fill-opacity:1;stroke:none;display:inline"
         sodipodi:nodetypes="cssccc" />
      <path
         inkscape:export-ydpi="102"
         inkscape:export-xdpi="102"
         inkscape:export-filename="/home/jc/Documents/web/crazybio/www/bioinfo/crazybioflow_sdk/crazybiolab/character/student.png"
         sodipodi:nodetypes="ccccc"
         inkscape:connector-curvature="0"
         id="path3807-1"
         d="m 503.11662,306.45468 c 11.68774,0.008 6.78166,15.70488 6.78166,15.70488 l 16.24027,-13.02792 -4.46161,-20.1665 c -0.53539,3.21237 -8.19595,15.50014 -18.56032,17.48954 z"
         style="opacity:0.05017922;fill:#020301;fill-opacity:1;stroke:none;display:inline" />
      <path
         inkscape:export-ydpi="102.02"
         inkscape:export-xdpi="102.02"
         inkscape:export-filename="/home/jc/Documents/web/crazybio/www/bioinfo/crazybioflow_sdk/crazybiolab/character/student.png"
         sodipodi:nodetypes="ccscccccsssc"
         inkscape:connector-curvature="0"
         id="path3904-9"
         d="m 526.25006,307.33863 c -1.53193,-2.40733 -3.08577,-9.81047 -3.08577,-9.81047 1.75078,1.20367 6.38914,1.26849 6.96481,3.30156 1.33496,4.71463 0.12582,7.35022 2.20488,10.5235 0,0 15.95305,12.497 18.79806,14.02894 -30.2625,23.96142 -38.17797,7.88925 -59.86923,6.07691 -3.43666,-11.07366 -27.8976,0.86953 -21.78799,-8.2949 l 15.073,-6.43317 c 0,0 4.18625,-15.3305 5.60316,-8.79464 1.88494,8.69477 9.15605,21.92424 12.28699,21.1415 1.56547,-0.39136 4.63584,-9.22676 13.98458,-12.86574 5.80124,-2.25811 9.82751,-8.87349 9.82751,-8.87349 z"
         style="fill:#e3e2db;stroke:none;display:inline" />
      <path
         inkscape:export-ydpi="102.02"
         inkscape:export-xdpi="102.02"
         inkscape:export-filename="/home/jc/Documents/web/crazybio/www/bioinfo/crazybioflow_sdk/crazybiolab/character/student.png"
         sodipodi:nodetypes="zzzzzzzzz"
         inkscape:connector-curvature="0"
         id="path3050-5"
         d="m 473.39536,259.44615 c -1.88734,7.62729 3.2391,8.76055 4.11354,14.2694 0.87443,5.50885 0.31414,10.71906 2.93986,17.45875 2.62572,6.7397 3.07479,15.3073 11.52361,16.61544 8.44881,1.30815 20.21819,-5.24996 24.45672,-10.18846 4.23852,-4.93851 3.50283,-3.8006 5.06278,-12.09796 1.55995,-8.29738 4.93977,-28.44717 -0.94927,-37.53473 -5.88905,-9.08755 -14.75622,-13.84714 -24.6811,-12.09796 -9.92488,1.74918 -20.57878,15.94824 -22.46614,23.57552 z"
         style="fill:#e9afc4;fill-opacity:1;stroke:#de8787;stroke-width:0.54827297px;stroke-linecap:butt;stroke-linejoin:miter;stroke-opacity:1;display:inline" />
      <path
         inkscape:export-ydpi="102.02"
         inkscape:export-xdpi="102.02"
         inkscape:export-filename="/home/jc/Documents/web/crazybio/www/bioinfo/crazybioflow_sdk/crazybiolab/character/student.png"
         sodipodi:nodetypes="zzcccczz"
         inkscape:connector-curvature="0"
         id="path4040-1"
         d="m 497.27602,266.91431 c -2.98535,2.2678 -2.93687,5.07445 -3.40856,7.64848 -0.47168,2.57403 -0.21294,5.53724 0.41568,7.31594 1.5574,-0.59198 1.27842,-3.05495 1.1639,-1.91213 -0.43292,-1.87128 -0.51618,-4.46751 0.6444,-6.76715 3.23897,1.85714 9.2661,-0.70363 13.45118,-2.35709 1.60789,-3.23301 4.86179,-4.59079 1.7002,-6.00644 -3.1616,-1.41566 -10.98145,-0.18941 -13.96679,2.07839 z"
         style="opacity:0.21505378;fill:#000303;fill-opacity:1;stroke:none;display:inline" />
      <path
         inkscape:export-ydpi="102.02"
         inkscape:export-xdpi="102.02"
         inkscape:export-filename="/home/jc/Documents/web/crazybio/www/bioinfo/crazybioflow_sdk/crazybiolab/character/student.png"
         sodipodi:nodetypes="czc"
         inkscape:connector-curvature="0"
         id="path3826-0"
         d="m 498.72606,273.24958 c 3.46852,0.96153 10.57142,-0.23103 10.57142,-0.23103 0,0 -6.8695,-5.44381 -10.57142,0.23103 z"
         style="fill:#fffefe;fill-opacity:1;stroke:none;display:inline" />
      <path
         inkscape:export-ydpi="102.02"
         inkscape:export-xdpi="102.02"
         inkscape:export-filename="/home/jc/Documents/web/crazybio/www/bioinfo/crazybioflow_sdk/crazybiolab/character/student.png"
         transform="matrix(0.19824523,0.03516273,-0.03516273,0.19824523,437.16362,204.18766)"
         d="m 389.47368,275.05066 c 0,4.75295 -3.85303,8.60597 -8.60597,8.60597 -4.75295,0 -8.60598,-3.85302 -8.60598,-8.60597 0,-4.75295 3.85303,-8.60598 8.60598,-8.60598 4.75294,0 8.60597,3.85303 8.60597,8.60598 z"
         sodipodi:ry="8.6059742"
         sodipodi:rx="8.6059742"
         sodipodi:cy="275.05066"
         sodipodi:cx="380.86771"
         id="path3828-04"
         style="opacity:0.46953406;fill:#0000ff;fill-opacity:1;fill-rule:nonzero;stroke:none;display:inline"
         sodipodi:type="arc" />
      <path
         inkscape:export-ydpi="102.02"
         inkscape:export-xdpi="102.02"
         inkscape:export-filename="/home/jc/Documents/web/crazybio/www/bioinfo/crazybioflow_sdk/crazybiolab/character/student.png"
         transform="matrix(0.09912261,0.01758137,-0.01758137,0.09912261,469.77027,238.09257)"
         d="m 389.47368,275.05066 c 0,4.75295 -3.85303,8.60597 -8.60597,8.60597 -4.75295,0 -8.60598,-3.85302 -8.60598,-8.60597 0,-4.75295 3.85303,-8.60598 8.60598,-8.60598 4.75294,0 8.60597,3.85303 8.60597,8.60598 z"
         sodipodi:ry="8.6059742"
         sodipodi:rx="8.6059742"
         sodipodi:cy="275.05066"
         sodipodi:cx="380.86771"
         id="path3828-4-6"
         style="opacity:0.46953406;fill:#000000;fill-opacity:1;fill-rule:nonzero;stroke:none;display:inline"
         sodipodi:type="arc" />
      <path
         inkscape:export-ydpi="102.02"
         inkscape:export-xdpi="102.02"
         inkscape:export-filename="/home/jc/Documents/web/crazybio/www/bioinfo/crazybioflow_sdk/crazybiolab/character/student.png"
         sodipodi:nodetypes="cccc"
         inkscape:connector-curvature="0"
         id="path3851-4"
         d="m 495.28515,269.28586 1.49644,0.70885 c 3.78049,-2.12654 6.93089,-4.01678 15.5945,-1.41769 -1.81149,-2.12652 -9.2937,-5.74949 -17.09094,0.70884 z"
         style="fill:#000000;fill-opacity:1;stroke:none;display:inline" />
      <path
         inkscape:export-ydpi="102.02"
         inkscape:export-xdpi="102.02"
         inkscape:export-filename="/home/jc/Documents/web/crazybio/www/bioinfo/crazybioflow_sdk/crazybiolab/character/student.png"
         sodipodi:nodetypes="cccccczc"
         inkscape:connector-curvature="0"
         id="path3930-0"
         d="m 508.91499,244.75713 c -2.19,7.27817 -29.27793,18.07794 -33.74815,19.28594 2.79129,5.35744 6.99491,0.2233 14.51746,6.36268 -0.2148,2.41645 0.28573,2.92064 -2.14802,4.98681 -2.84516,1.06704 -7.49579,2.1254 -10.08914,5.45527 0.50527,-3.3673 0.44606,-2.98017 0.0877,-8.13565 -1.60314,-4.94801 -8.0848,-6.71186 -4.77723,-11.38234 3.30759,-4.67048 33.57551,-21.36121 36.15735,-16.57271 z"
         style="opacity:0.12544801;fill:#000000;fill-opacity:1;stroke:none;display:inline" />
      <path
         inkscape:export-ydpi="102.02"
         inkscape:export-xdpi="102.02"
         inkscape:export-filename="/home/jc/Documents/web/crazybio/www/bioinfo/crazybioflow_sdk/crazybiolab/character/student.png"
         sodipodi:nodetypes="sscscsccssssssss"
         inkscape:connector-curvature="0"
         id="path3853-7"
         d="m 475.47131,240.94757 c -3.22678,5.90924 -3.55209,11.48701 -4.00673,18.2045 -0.32392,4.78602 2.17569,8.81955 3.62297,12.12905 0.21589,-8.09643 3.22916,-11.18394 4.09553,-11.42022 0.86635,-0.23628 24.40637,-9.6105 27.01472,-15.75202 8.04472,3.25374 12.05029,17.24846 12.36534,17.48475 0.31504,0.23628 0.55513,11.08003 0.0848,17.80182 2.81512,-0.0906 3.61265,-3.72469 5.74339,-8.82317 5.34238,1.30413 -1.11697,10.96163 -1.10264,16.46087 0.0123,4.73789 -3.20125,10.42677 1.02388,12.57064 2.51393,1.27558 0.33905,-2.27146 0.65692,-5.07252 0.41733,-3.67738 2.87435,-4.01444 3.20233,-7.49812 0.71439,-7.58807 3.75223,-20.76706 3.22916,-29.556 -0.74184,-12.46553 -8.38534,-20.38621 -20.16346,-25.12622 -7.52745,-3.02937 -17.80516,-3.72152 -24.91415,0.19025 -3.35612,1.84671 -9.01622,5.04432 -10.85211,8.40639 z"
         style="fill:#000000;stroke:#000000;stroke-width:0.55368358px;stroke-linecap:butt;stroke-linejoin:miter;stroke-opacity:1;display:inline" />
      <path
         inkscape:export-ydpi="102.02"
         inkscape:export-xdpi="102.02"
         inkscape:export-filename="/home/jc/Documents/web/crazybio/www/bioinfo/crazybioflow_sdk/crazybiolab/character/student.png"
         sodipodi:nodetypes="ccc"
         inkscape:connector-curvature="0"
         id="path3858-5"
         d="m 487.90882,273.23811 c -4.88314,1.33892 -8.34858,-0.15753 -8.34858,-0.15753 0,0 5.67073,-5.43444 8.34858,0.15753 z"
         style="fill:#ffffff;fill-opacity:1;stroke:none;display:inline" />
      <path
         inkscape:export-ydpi="102.02"
         inkscape:export-xdpi="102.02"
         inkscape:export-filename="/home/jc/Documents/web/crazybio/www/bioinfo/crazybioflow_sdk/crazybiolab/character/student.png"
         transform="matrix(0.20133949,0,0,0.20133949,408.38974,216.91443)"
         d="m 389.47368,275.05066 c 0,4.75295 -3.85303,8.60597 -8.60597,8.60597 -4.75295,0 -8.60598,-3.85302 -8.60598,-8.60597 0,-4.75295 3.85303,-8.60598 8.60598,-8.60598 4.75294,0 8.60597,3.85303 8.60597,8.60598 z"
         sodipodi:ry="8.6059742"
         sodipodi:rx="8.6059742"
         sodipodi:cy="275.05066"
         sodipodi:cx="380.86771"
         id="path3828-2-6"
         style="opacity:0.46953406;fill:#0000ff;fill-opacity:1;fill-rule:nonzero;stroke:none;display:inline"
         sodipodi:type="arc" />
      <path
         inkscape:export-ydpi="102.02"
         inkscape:export-xdpi="102.02"
         inkscape:export-filename="/home/jc/Documents/web/crazybio/www/bioinfo/crazybioflow_sdk/crazybiolab/character/student.png"
         transform="matrix(0.10066973,0,0,0.10066973,446.41656,244.52495)"
         d="m 389.47368,275.05066 c 0,4.75295 -3.85303,8.60597 -8.60597,8.60597 -4.75295,0 -8.60598,-3.85302 -8.60598,-8.60597 0,-4.75295 3.85303,-8.60598 8.60598,-8.60598 4.75294,0 8.60597,3.85303 8.60597,8.60598 z"
         sodipodi:ry="8.6059742"
         sodipodi:rx="8.6059742"
         sodipodi:cy="275.05066"
         sodipodi:cx="380.86771"
         id="path3828-4-2-8"
         style="opacity:0.46953406;fill:#000000;fill-opacity:1;fill-rule:nonzero;stroke:none;display:inline"
         sodipodi:type="arc" />
      <path
         inkscape:export-ydpi="102.02"
         inkscape:export-xdpi="102.02"
         inkscape:export-filename="/home/jc/Documents/web/crazybio/www/bioinfo/crazybioflow_sdk/crazybiolab/character/student.png"
         sodipodi:nodetypes="ccccc"
         inkscape:connector-curvature="0"
         id="path4141-8-8"
         d="m 500.20828,295.23579 c -2.83594,3.04842 -11.60158,2.07847 -11.60158,2.07847 l -1.16015,-2.3556 11.47267,-1e-5 z"
         style="fill:#000000;fill-opacity:1;stroke:none;display:inline" />
      <path
         inkscape:export-ydpi="102.02"
         inkscape:export-xdpi="102.02"
         inkscape:export-filename="/home/jc/Documents/web/crazybio/www/bioinfo/crazybioflow_sdk/crazybiolab/character/student.png"
         sodipodi:nodetypes="cccc"
         inkscape:connector-curvature="0"
         id="path3933-1"
         d="m 490.53227,270.34593 c -6.63909,-4.56438 -14.10809,-2.69713 -14.10809,-2.69713 l 1.24484,2.07471 c 2.90461,-1.65978 12.86325,0.62242 12.86325,0.62242 z"
         style="fill:#24221c;fill-opacity:1;stroke:none;display:inline" />
      <path
         inkscape:export-ydpi="102.02"
         inkscape:export-xdpi="102.02"
         inkscape:export-filename="/home/jc/Documents/web/crazybio/www/bioinfo/crazybioflow_sdk/crazybiolab/character/student.png"
         sodipodi:nodetypes="ccccccc"
         inkscape:connector-curvature="0"
         id="path3942-8"
         d="m 521.60101,271.97996 c 0.25574,-0.51149 1.76408,-1.99015 3.42641,-2.75739 0,0 3.96583,-1.28226 4.60519,4.02445 -0.41915,3.58898 -3.57231,11.2581 -3.57231,11.2581 -1.08692,1.27872 -2.23777,1.66234 -2.23777,1.66234 -1.59841,-0.63936 -3.06894,-2.30171 -3.06894,-2.30171 z"
         style="fill:#e9afaf;stroke:none;display:inline" />
      <path
         inkscape:export-ydpi="102.02"
         inkscape:export-xdpi="102.02"
         inkscape:export-filename="/home/jc/Documents/web/crazybio/www/bioinfo/crazybioflow_sdk/crazybiolab/character/student.png"
         sodipodi:nodetypes="zzzzzzzzzzzzzz"
         inkscape:connector-curvature="0"
         id="path3945-90"
         d="m 523.11923,274.14743 c 0.0639,-0.25573 1.05032,-2.95625 2.36564,-3.005 1.31532,-0.0487 3.12201,2.04277 2.74926,3.005 -0.37274,0.96225 -1.58245,-0.74773 -2.10989,0.19182 -0.52744,0.93955 2.26933,2.83667 1.91809,3.90011 -0.35125,1.06344 -1.45677,0.65743 -2.1099,1.08692 -0.65314,0.42948 -1.57426,0.7731 -1.79022,1.47053 -0.21596,0.69743 1.11969,1.54675 0.57543,1.98203 -0.54426,0.43528 -1.47451,-0.23854 -1.85416,-1.02298 -0.37964,-0.78444 0.0535,-2.17907 0.5115,-3.06894 0.45795,-0.88987 1.94775,-1.31254 2.04596,-2.04596 0.0982,-0.73343 -0.23182,-1.22775 -0.76724,-1.34267 -0.53542,-0.11492 -0.81642,1.30199 -1.40659,1.02298 -0.59018,-0.27901 -0.19181,-1.91808 -0.12788,-2.17384 z"
         style="opacity:0.24014336;fill:#000203;fill-opacity:1;stroke:none;display:inline" />
      <path
         inkscape:export-ydpi="102.02"
         inkscape:export-xdpi="102.02"
         inkscape:export-filename="/home/jc/Documents/web/crazybio/www/bioinfo/crazybioflow_sdk/crazybiolab/character/student.png"
         sodipodi:nodetypes="cscc"
         inkscape:connector-curvature="0"
         id="path4018-1"
         d="m 524.16625,302.02497 c 0.21885,0.87539 1.53281,6.89325 1.97051,5.58018 0.43769,-1.31309 2.0786,-0.85977 1.96875,-4.70479 -1.3183,-1.42816 -3.93926,-0.87539 -3.93926,-0.87539 z"
         style="opacity:0.2688172;fill:#000303;fill-opacity:1;stroke:none;display:inline" />
      <path
         inkscape:export-ydpi="102.02"
         inkscape:export-xdpi="102.02"
         inkscape:export-filename="/home/jc/Documents/web/crazybio/www/bioinfo/crazybioflow_sdk/crazybiolab/character/student.png"
         sodipodi:nodetypes="cccccc"
         inkscape:connector-curvature="0"
         id="path4130-6"
         d="m 529.51473,305.10101 -5.79606,8.5681 -6.80406,4.78804 c -10.78873,10.81602 -4.62546,11.08854 1.26001,5.04005 0,0 8.82009,-9.5761 12.60013,-12.09613 z"
         style="opacity:0.10394263;fill:#000303;fill-opacity:1;stroke:none;display:inline" />
      <path
         inkscape:export-ydpi="102.02"
         inkscape:export-xdpi="102.02"
         inkscape:export-filename="/home/jc/Documents/web/crazybio/www/bioinfo/crazybioflow_sdk/crazybiolab/character/student.png"
         sodipodi:nodetypes="ccccc"
         inkscape:connector-curvature="0"
         id="path4141-3"
         d="m 500.47836,295.02816 c -2.97098,1.48549 -12.15402,1.01283 -12.15402,1.01283 l -1.2154,-1.14788 12.01898,0 z"
         style="fill:#ffffff;fill-opacity:1;stroke:none;display:inline" />
      <path
         sodipodi:nodetypes="csccccc"
         inkscape:export-ydpi="102.02"
         inkscape:export-xdpi="102.02"
         inkscape:export-filename="/home/jc/Documents/web/crazybio/www/bioinfo/crazybioflow_sdk/crazybiolab/character/student.png"
         inkscape:connector-curvature="0"
         id="path3938-1"
         d="m 486.67555,294.92673 c 0.25576,-0.0639 5.06892,0.4619 5.45252,0.4619 0.38362,0 8.86921,-0.58977 8.86921,-0.58977 l -7.73629,-0.57543 -1.47053,0.51149 -1.27872,-0.51149 z"
         style="fill:#de8787;fill-opacity:1;stroke:none;display:inline" />
      <path
         inkscape:export-ydpi="102.02"
         inkscape:export-xdpi="102.02"
         inkscape:export-filename="/home/jc/Documents/web/crazybio/www/bioinfo/crazybioflow_sdk/crazybiolab/character/student.png"
         sodipodi:nodetypes="cczc"
         inkscape:connector-curvature="0"
         id="path3856-8"
         d="m 486.97899,294.98791 c 2.86966,2.3184 7.04324,2.59373 14.10453,-0.15819 -3.59486,2.71488 -5.08971,4.33008 -8.80998,4.36616 -3.72028,0.0361 -5.29455,-4.20797 -5.29455,-4.20797 z"
         style="fill:#de8787;fill-opacity:1;stroke:none;display:inline" />
      <path
         inkscape:export-ydpi="102.02"
         inkscape:export-xdpi="102.02"
         inkscape:export-filename="/home/jc/Documents/web/crazybio/www/bioinfo/crazybioflow_sdk/crazybiolab/character/student.png"
         sodipodi:nodetypes="ccccc"
         inkscape:connector-curvature="0"
         id="path4161-51"
         d="m 498.54616,272.57503 c 0.70907,-1.74532 1.10204,-2.74631 4.34379,-2.98746 3.01988,0.81107 6.366,3.95715 6.366,3.95715 0,0 -3.49113,-2.3505 -5.9977,-3.00787 -2.80577,-0.28085 -4.71209,2.03818 -4.71209,2.03818 z"
         style="opacity:0.40143367;fill:#000000;fill-opacity:1;stroke:none;display:inline" />
      <path
         inkscape:export-ydpi="102.02"
         inkscape:export-xdpi="102.02"
         inkscape:export-filename="/home/jc/Documents/web/crazybio/www/bioinfo/crazybioflow_sdk/crazybiolab/character/student.png"
         sodipodi:nodetypes="ccccc"
         inkscape:connector-curvature="0"
         id="path4161-1-4"
         d="m 487.91689,273.12099 c -0.65004,-1.76568 -1.01103,-2.77755 -3.81365,-3.20159 -2.58813,0.62868 -5.4067,3.54657 -5.4067,3.54657 0,0 2.96111,-2.12325 5.10967,-2.62941 2.41498,-0.11688 4.11068,2.28443 4.11068,2.28443 z"
         style="opacity:0.40143367;fill:#000000;fill-opacity:1;stroke:none;display:inline" />
      <path
         inkscape:export-ydpi="102.02"
         inkscape:export-xdpi="102.02"
         inkscape:export-filename="/home/jc/Documents/web/crazybio/www/bioinfo/crazybioflow_sdk/crazybiolab/character/student.png"
         sodipodi:nodetypes="czzzccssszcc"
         inkscape:connector-curvature="0"
         id="path3940-9-6-8"
         d="m 491.72691,289.34966 c -1.00454,0.18823 -2.62097,0.63953 -3.29487,0.38056 -0.67387,-0.25896 -1.29981,-1.21286 -1.28711,-2.37498 0.0127,-1.16214 1.02657,-2.68612 1.34616,-2.28403 0.31959,0.40208 -0.0702,2.82453 1.19196,3.665 0.55416,-0.268 1.57821,-0.16153 2.43648,0.0953 0.20556,-0.0725 1.04366,-0.15096 1.41701,-0.20759 0.37335,-0.0566 0.70182,-0.005 1.36174,-0.76001 0.41608,-0.47618 0.43541,-1.3746 0.74432,-1.35938 0.27494,0.0136 0.70917,1.81269 0.0773,2.9482 -0.63189,1.13551 -2.47099,0.22327 -3.99297,-0.10305 z"
         style="fill:#b78a9b;fill-opacity:1;stroke:none;display:inline" />
    </g>
    <path
       inkscape:connector-curvature="0"
       style="fill:#ffffff;fill-opacity:1;stroke:#000000;stroke-width:2;stroke-linecap:butt;stroke-linejoin:miter;stroke-miterlimit:4;stroke-opacity:1;stroke-dasharray:none"
       id="path3899"
       d="m 364.37791,269.07043 -0.71428,16.85714 c 0,0 42.76725,0.20242 61.42857,2.28572 -5.98399,21.0778 -7.06095,51.9507 7.85714,69.28571 14.9181,17.33501 50.96709,31.09275 50.96709,31.09275 0,0 -35.05535,-23.9911 -45.2528,-43.23561 -10.19745,-19.24451 -1.75557,-45.79963 1.42857,-67.14285 -6.72114,-9.90954 -75.71429,-9.14286 -75.71429,-9.14286 z"
       sodipodi:nodetypes="cccscscc" />
  </g>
</svg>
