<?xml version="1.0" encoding="UTF-8" standalone="no"?>
<!-- Created with Inkscape (http://www.inkscape.org/) -->

<svg
   xmlns:dc="http://purl.org/dc/elements/1.1/"
   xmlns:cc="http://creativecommons.org/ns#"
   xmlns:rdf="http://www.w3.org/1999/02/22-rdf-syntax-ns#"
   xmlns:svg="http://www.w3.org/2000/svg"
   xmlns="http://www.w3.org/2000/svg"
   xmlns:sodipodi="http://sodipodi.sourceforge.net/DTD/sodipodi-0.dtd"
   xmlns:inkscape="http://www.inkscape.org/namespaces/inkscape"
   width="200"
   height="200"
   id="svg3101"
   version="1.1"
   inkscape:version="0.48.4 r9939"
   sodipodi:docname="sampleA.svg">
  <defs
     id="defs3103" />
  <sodipodi:namedview
     id="base"
     pagecolor="#ffffff"
     bordercolor="#666666"
     borderopacity="1.0"
     inkscape:pageopacity="0.0"
     inkscape:pageshadow="2"
     inkscape:zoom="1.979899"
     inkscape:cx="64.151732"
     inkscape:cy="149.3188"
     inkscape:document-units="px"
     inkscape:current-layer="layer1"
     showgrid="false"
     fit-margin-top="0"
     fit-margin-left="0"
     fit-margin-right="0"
     fit-margin-bottom="0"
     inkscape:window-width="1600"
     inkscape:window-height="876"
     inkscape:window-x="0"
     inkscape:window-y="24"
     inkscape:window-maximized="1" />
  <metadata
     id="metadata3106">
    <rdf:RDF>
      <cc:Work
         rdf:about="">
        <dc:format>image/svg+xml</dc:format>
        <dc:type
           rdf:resource="http://purl.org/dc/dcmitype/StillImage" />
        <dc:title />
      </cc:Work>
    </rdf:RDF>
  </metadata>
  <g
     inkscape:label="Calque 1"
     inkscape:groupmode="layer"
     id="layer1"
     transform="translate(-60.716035,-281.8224)">
    <path
       style="fill:#d7d7d7;fill-opacity:1;stroke:#000001;stroke-width:0.72050118;stroke-linecap:round;stroke-linejoin:miter;stroke-miterlimit:4;stroke-opacity:1;stroke-dashoffset:0"
       d="m 109.82517,284.04977 c 54.95461,17.78928 76.71352,19.52366 151.17786,49.45757 l -2.652,3.01169 C 200.12575,321.23489 143.56398,319.81319 108.62881,288.5171 z"
       id="rect2985-0"
       inkscape:connector-curvature="0"
       sodipodi:nodetypes="ccccc" />
    <path
       style="opacity:0.67025087;fill:#f9f9f9;fill-opacity:1;stroke:#000001;stroke-width:0.72050118;stroke-linecap:round;stroke-linejoin:miter;stroke-miterlimit:4;stroke-opacity:1;stroke-dashoffset:0"
       d="m 109.8611,283.34017 c 40.02988,27.65702 93.88358,30.36273 150.65323,49.28594 L 211.86846,481.32282 61.215231,432.03687 z"
       id="rect2985"
       inkscape:connector-curvature="0"
       sodipodi:nodetypes="ccccc" />
    <path
       style="fill:none;stroke:#000000;stroke-width:0.72050118px;stroke-linecap:butt;stroke-linejoin:miter;stroke-opacity:1"
       d="m 110.3653,357.77517 c 3.89392,-0.44621 60.75937,10.09762 62.2975,26.05414 1.53814,15.9565 -38.79255,6.04559 -43.79392,25.01578 -5.00136,18.97021 47.04072,29.43487 47.04072,29.43487"
       id="path3782"
       inkscape:connector-curvature="0"
       sodipodi:nodetypes="czzc"
       inkscape:export-filename="/home/jc/Documents/web/crazybio/www/bioinfo/crime/sampleA.png"
       inkscape:export-xdpi="25.83"
       inkscape:export-ydpi="25.83" />
    <path
       style="fill:none;stroke:#000000;stroke-width:0.70131946px;stroke-linecap:butt;stroke-linejoin:miter;stroke-opacity:1"
       d="m 119.03008,360.99335 c 3.57652,-1.12168 58.92791,-0.88307 63.29218,14.38988 4.36426,15.27296 -35.33771,12.73366 -36.56563,32.09623 -1.22793,19.36258 49.57765,20.37505 49.57765,20.37505"
       id="path3782-5"
       inkscape:connector-curvature="0"
       sodipodi:nodetypes="czzc"
       inkscape:export-filename="/home/jc/Documents/web/crazybio/www/bioinfo/crime/sampleA.png"
       inkscape:export-xdpi="25.83"
       inkscape:export-ydpi="25.83" />
    <path
       style="fill:none;stroke:#000000;stroke-width:0.72050118px;stroke-linecap:butt;stroke-linejoin:miter;stroke-opacity:1"
       d="m 116.4028,355.99126 c 3.89392,-0.44621 60.75938,10.09762 62.29751,26.05414 1.53813,15.9565 -38.79255,6.04558 -43.79392,25.01578 -5.00137,18.97021 47.04071,29.43487 47.04071,29.43487"
       id="path3782-2"
       inkscape:connector-curvature="0"
       sodipodi:nodetypes="czzc"
       inkscape:export-filename="/home/jc/Documents/web/crazybio/www/bioinfo/crime/sampleA.png"
       inkscape:export-xdpi="25.83"
       inkscape:export-ydpi="25.83" />
    <path
       style="fill:none;stroke:#000000;stroke-width:0.72050118px;stroke-linecap:butt;stroke-linejoin:miter;stroke-opacity:1"
       d="m 101.11867,357.44689 c 3.89392,-0.44621 60.75937,10.09762 62.2975,26.05414 1.53814,15.95649 -38.79255,6.04558 -43.79392,25.01578 -5.00136,18.97021 47.04072,29.43487 47.04072,29.43487"
       id="path3782-8"
       inkscape:connector-curvature="0"
       sodipodi:nodetypes="czzc"
       inkscape:export-filename="/home/jc/Documents/web/crazybio/www/bioinfo/crime/sampleA.png"
       inkscape:export-xdpi="25.83"
       inkscape:export-ydpi="25.83" />
    <path
       style="fill:none;stroke:#000000;stroke-width:0.72050118px;stroke-linecap:butt;stroke-linejoin:miter;stroke-opacity:1"
       d="m 108.26077,356.5217 c 3.79535,-0.97827 61.57107,1.63287 65.29227,17.22545 3.7212,15.59259 -37.59017,11.33096 -39.93106,30.80921 -2.34089,19.47826 50.64652,22.67532 50.64652,22.67532"
       id="path3782-9"
       inkscape:connector-curvature="0"
       sodipodi:nodetypes="czzc"
       inkscape:export-filename="/home/jc/Documents/web/crazybio/www/bioinfo/crime/sampleA.png"
       inkscape:export-xdpi="25.83"
       inkscape:export-ydpi="25.83" />
    <g
       transform="matrix(0.67659904,0.2476604,-0.2476604,0.67659904,345.83898,-164.15572)"
       inkscape:transform-center-x="-0.65542599"
       inkscape:transform-center-y="0.80702596"
       style="font-size:14px;font-style:normal;font-variant:normal;font-stretch:normal;text-align:start;line-height:125%;letter-spacing:0px;word-spacing:0px;writing-mode:lr-tb;text-anchor:start;fill:#000000;fill-opacity:1;stroke:none;font-family:URW Gothic L;-inkscape-font-specification:URW Gothic L Book"
       id="flowRoot4367-3">
      <path
         d="m -64.4375,728.35026 -9.164062,0 0,-2.8125 c -1.4e-5,-1.31247 -0.117202,-2.1484 -0.351563,-2.50781 -0.234388,-0.35934 -0.625013,-0.53903 -1.171875,-0.53906 -0.593762,3e-5 -1.046886,0.24222 -1.359375,0.72656 -0.296886,0.48441 -0.445323,1.21878 -0.445312,2.20312 -1.1e-5,1.26566 0.171864,2.21878 0.515625,2.85938 0.328113,0.64065 1.2578,1.41409 2.789062,2.32031 4.390607,2.6094 7.156229,4.75002 8.296875,6.42188 1.140602,1.67189 1.710914,4.3672 1.710938,8.08593 -2.4e-5,2.70314 -0.320336,4.69532 -0.960938,5.97657 -0.625022,1.28125 -1.843771,2.35937 -3.65625,3.23437 -1.812517,0.85938 -3.92189,1.28906 -6.328125,1.28906 -2.640635,0 -4.898445,-0.5 -6.773437,-1.5 -1.85938,-0.99999 -3.078128,-2.27343 -3.65625,-3.82031 -0.578127,-1.54687 -0.867189,-3.74218 -0.867188,-6.58594 l 0,-2.48437 9.164063,0 0,4.61719 c -1.1e-5,1.42188 0.124989,2.33594 0.375,2.74218 0.265613,0.40626 0.72655,0.60938 1.382812,0.60938 0.656237,0 1.140611,-0.25781 1.453125,-0.77344 0.328111,-0.51562 0.492173,-1.28124 0.492188,-2.29687 -1.5e-5,-2.23437 -0.304702,-3.6953 -0.914063,-4.38282 -0.625013,-0.68748 -2.164074,-1.83592 -4.617187,-3.44531 -2.453132,-1.62498 -4.07813,-2.80467 -4.875,-3.53906 -0.796879,-0.73436 -1.46094,-1.74998 -1.992188,-3.04688 -0.515626,-1.29685 -0.773439,-2.95309 -0.773437,-4.96875 -2e-6,-2.90622 0.367185,-5.03121 1.101562,-6.375 0.749997,-1.34371 1.953121,-2.39058 3.609375,-3.14062 1.656242,-0.76559 3.65624,-1.1484 6,-1.14844 2.562486,4e-5 4.742171,0.4141 6.539063,1.24219 1.812479,0.82816 3.007791,1.87503 3.585937,3.14062 0.593727,1.25004 0.890602,3.38285 0.890625,6.39844 l 0,1.5"
         style="font-size:48px;font-weight:bold;font-family:Impact;-inkscape-font-specification:Impact Bold"
         id="path3158"
         inkscape:connector-curvature="0" />
      <path
         d="m -52.320312,735.75651 -8.882813,0 0,-2.08594 c -10e-7,-2.40622 0.273436,-4.25778 0.820313,-5.55468 0.562497,-1.31248 1.679683,-2.46872 3.351562,-3.46875 1.671868,-0.99997 3.843741,-1.49997 6.515625,-1.5 3.20311,3e-5 5.61717,0.57034 7.242188,1.71093 1.624979,1.12503 2.60154,2.51566 2.929687,4.17188 0.328103,1.64065 0.492165,5.03127 0.492188,10.17187 l 0,15.60938 -9.210938,0 0,-2.76563 c -0.578138,1.10938 -1.328137,1.94532 -2.25,2.50782 -0.90626,0.54687 -1.992197,0.82031 -3.257812,0.82031 -1.656257,0 -3.179693,-0.46094 -4.570313,-1.38281 -1.375002,-0.9375 -2.062501,-2.97656 -2.0625,-6.11719 l 0,-2.55469 c -10e-7,-2.32811 0.367186,-3.91405 1.101563,-4.75781 0.734371,-0.84374 2.554682,-1.82811 5.460937,-2.95313 3.109364,-1.21873 4.773425,-2.03904 4.992188,-2.46093 0.218736,-0.42186 0.328111,-1.28123 0.328125,-2.57813 -1.4e-5,-1.62497 -0.125014,-2.67966 -0.375,-3.16406 -0.234388,-0.49998 -0.632825,-0.74997 -1.195313,-0.75 -0.640636,3e-5 -1.039073,0.21096 -1.195312,0.63281 -0.156261,0.40628 -0.234386,1.47659 -0.234375,3.21094 l 0,3.25781 m 3,4.26563 c -1.515637,1.10939 -2.398449,2.03907 -2.648438,2.78906 -0.234385,0.75001 -0.351573,1.82813 -0.351562,3.23437 -1.1e-5,1.60939 0.101552,2.64845 0.304687,3.11719 0.218739,0.46876 0.640614,0.70313 1.265625,0.70313 0.593738,0 0.97655,-0.17969 1.148438,-0.53907 0.187486,-0.37499 0.281236,-1.34374 0.28125,-2.90625 l 0,-6.39843"
         style="font-size:48px;font-weight:bold;font-family:Impact;-inkscape-font-specification:Impact Bold"
         id="path3160"
         inkscape:connector-curvature="0" />
      <path
         d="m -27.242187,723.70964 -0.164063,2.95312 c 0.734363,-1.17184 1.609363,-2.04684 2.625,-2.625 1.01561,-0.59372 2.171859,-0.89059 3.46875,-0.89062 2.531231,3e-5 4.523416,1.1719 5.976562,3.51562 0.796852,-1.17184 1.695288,-2.04684 2.695313,-2.625 0.999973,-0.59372 2.109347,-0.89059 3.328125,-0.89062 1.6093444,3e-5 2.9374681,0.39065 3.984375,1.17187 1.062466,0.78128 1.7421528,1.74222 2.0390625,2.88281 0.2968397,1.12503 0.4452771,2.96097 0.4453125,5.50782 l 0,22.10156 -9.1875,0 0,-20.27344 c -2.6e-5,-2.65623 -0.09378,-4.29685 -0.28125,-4.92187 -0.171901,-0.6406 -0.585963,-0.96091 -1.242188,-0.96094 -0.671899,3e-5 -1.109398,0.31252 -1.3125,0.9375 -0.187523,0.62502 -0.281273,2.27346 -0.28125,4.94531 l 0,20.27344 -9.187499,0 0,-19.75781 c -1.4e-5,-3.04686 -0.07814,-4.87498 -0.234375,-5.48438 -0.140639,-0.60935 -0.546889,-0.91403 -1.21875,-0.91406 -0.421888,3e-5 -0.781262,0.16409 -1.078125,0.49219 -0.296887,0.31252 -0.460949,0.70315 -0.492188,1.17187 -0.03126,0.45315 -0.04689,1.42971 -0.04687,2.92969 l 0,21.5625 -9.1875,0 0,-31.10156 9.351563,0"
         style="font-size:48px;font-weight:bold;font-family:Impact;-inkscape-font-specification:Impact Bold"
         id="path3162"
         inkscape:connector-curvature="0" />
      <path
         d="m 10.070313,723.70964 -0.164063,2.74218 c 0.843738,-1.10934 1.773425,-1.93747 2.789063,-2.48437 1.01561,-0.54684 2.124983,-0.82028 3.328124,-0.82031 1.468732,3e-5 2.734355,0.39847 3.796875,1.19531 1.078103,0.78128 1.749978,1.68753 2.015625,2.71875 0.265602,1.03128 0.398415,2.78127 0.398438,5.25 l 0,13.10156 c -2.3e-5,2.82813 -0.171898,4.84376 -0.515625,6.04688 -0.328148,1.1875 -1.015647,2.14062 -2.0625,2.85937 -1.03127,0.70313 -2.281269,1.05469 -3.75,1.05469 -1.171891,0 -2.257827,-0.27344 -3.257812,-0.82031 -1.000013,-0.54688 -1.914075,-1.35938 -2.742188,-2.4375 l 0,7.125 -9.46875,0 0,-35.53125 9.632813,0 m 2.695312,9.04687 c -1.4e-5,-1.92185 -0.07033,-3.08591 -0.210937,-3.49219 -0.140639,-0.40622 -0.531264,-0.60934 -1.171875,-0.60937 -0.625013,3e-5 -1.031262,0.2344 -1.21875,0.70312 -0.1718867,0.46878 -0.2578242,1.60159 -0.257813,3.39844 l 0,12.89063 c -1.12e-5,1.875 0.093739,3.04688 0.28125,3.51562 0.187488,0.46876 0.593738,0.70313 1.21875,0.70313 0.609362,0 0.984361,-0.21094 1.125,-0.63282 0.156236,-0.43749 0.234361,-1.48436 0.234375,-3.14062 l 0,-13.33594"
         style="font-size:48px;font-weight:bold;font-family:Impact;-inkscape-font-specification:Impact Bold"
         id="path3164"
         inkscape:connector-curvature="0" />
      <path
         d="m 35.125,716.86589 0,37.94531 -9.75,0 0,-37.94531 9.75,0"
         style="font-size:48px;font-weight:bold;font-family:Impact;-inkscape-font-specification:Impact Bold"
         id="path3166"
         inkscape:connector-curvature="0" />
      <path
         d="m 59.945312,739.8112 -12.257812,0 0,6.72656 c -1.1e-5,1.40626 0.101552,2.31251 0.304687,2.71875 0.203114,0.40626 0.593739,0.60938 1.171875,0.60938 0.718737,0 1.195299,-0.26562 1.429688,-0.79688 0.249986,-0.54687 0.374986,-1.59374 0.375,-3.14062 l 0,-4.10157 8.976562,0 0,2.29688 c -2.3e-5,1.92188 -0.125023,3.39844 -0.375,4.42969 -0.234397,1.03125 -0.796896,2.13281 -1.6875,3.30468 -0.890645,1.17188 -2.023456,2.05469 -3.398437,2.64844 -1.359391,0.57813 -3.070327,0.86719 -5.132813,0.86719 -2.00001,0 -3.765633,-0.28906 -5.296875,-0.86719 -1.531255,-0.57812 -2.726567,-1.36718 -3.585937,-2.36719 -0.843753,-1.01562 -1.42969,-2.12499 -1.757813,-3.32812 -0.328126,-1.21874 -0.492188,-2.98437 -0.492187,-5.29688 l 0,-9.07031 c -10e-7,-2.71873 0.367186,-4.85935 1.101562,-6.42187 0.734372,-1.5781 1.937496,-2.78122 3.609375,-3.60938 1.671868,-0.84372 3.593741,-1.26559 5.765625,-1.26562 2.656236,3e-5 4.843734,0.50784 6.5625,1.52343 1.734355,1.00003 2.945292,2.33597 3.632813,4.00782 0.703102,1.65627 1.054664,3.99221 1.054687,7.00781 l 0,4.125 m -9.492187,-5.0625 0,-2.27344 c -1.4e-5,-1.60935 -0.08595,-2.64841 -0.257813,-3.11719 -0.171888,-0.46872 -0.52345,-0.70309 -1.054687,-0.70312 -0.656262,3e-5 -1.062511,0.20315 -1.21875,0.60937 -0.156261,0.39065 -0.234386,1.46097 -0.234375,3.21094 l 0,2.27344 2.765625,0"
         style="font-size:48px;font-weight:bold;font-family:Impact;-inkscape-font-specification:Impact Bold"
         id="path3168"
         inkscape:connector-curvature="0" />
    </g>
  </g>
</svg>
